<svg xmlns="http://www.w3.org/2000/svg" xmlns:xlink="http://www.w3.org/1999/xlink" width="406" zoomAndPan="magnify" viewBox="0 0 304.5 264.749997" height="353" preserveAspectRatio="xMidYMid meet" version="1.0"><defs><clipPath id="cbd49e006e"><path d="M 32 3.558594 L 147 3.558594 L 147 143 L 32 143 Z M 32 3.558594 " clip-rule="nonzero"/></clipPath><clipPath id="a98bfb0a3a"><path d="M 0 145 L 299.507812 145 L 299.507812 261 L 0 261 Z M 0 145 " clip-rule="nonzero"/></clipPath></defs><path fill="#5ef9f6" d="M 109.105469 109.199219 C 113.492188 112.507812 119.398438 113.992188 124.761719 114.734375 L 134.144531 115.308594 C 125.4375 107.175781 114.539062 103.023438 102.691406 102.449219 C 104.617188 104.980469 106.574219 107.308594 109.105469 109.199219 Z M 109.105469 109.199219 " fill-opacity="1" fill-rule="nonzero"/><path fill="#5ef9f6" d="M 195.429688 102.382812 C 186.214844 103.460938 176.765625 106.160156 169.375 112.035156 C 168.027344 113.113281 166.441406 114.363281 165.359375 115.710938 C 165.597656 115.78125 165.800781 115.882812 166.070312 115.914062 C 175.753906 115.476562 186.417969 114.125 193.269531 106.566406 C 194.347656 105.386719 195.328125 103.933594 196.035156 102.515625 C 195.664062 102.28125 195.867188 102.316406 195.429688 102.382812 Z M 195.429688 102.382812 " fill-opacity="1" fill-rule="nonzero"/><path fill="#5ef9f6" d="M 127.460938 162.585938 C 131.847656 167.617188 139.679688 176.726562 146.429688 178.210938 C 150.476562 179.089844 154.628906 178.078125 158.039062 175.847656 C 166.507812 170.316406 173.492188 161.640625 179.667969 153.777344 C 185.035156 146.625 191.617188 139.167969 193.945312 130.390625 C 194.550781 128.0625 194.957031 125.429688 194.652344 123.035156 L 194.347656 121.652344 L 194.144531 120.808594 C 183.921875 125.53125 172.347656 129.75 161.007812 126.273438 C 157.464844 125.195312 153.886719 123.542969 150.105469 123.472656 C 148.859375 123.472656 147.609375 123.710938 146.394531 123.914062 C 143.15625 124.453125 140.082031 126.039062 136.84375 126.679688 C 128.203125 128.367188 121.085938 127.421875 112.984375 124.046875 C 110.554688 123.035156 108.160156 121.71875 105.628906 120.910156 C 104.042969 128.300781 106.203125 134.273438 110.21875 140.414062 C 115.3125 148.210938 121.285156 155.566406 127.460938 162.585938 Z M 173.796875 137.582031 C 176.496094 136.433594 179.164062 135.152344 181.726562 133.699219 C 183.785156 132.550781 185.8125 131.132812 188.003906 130.257812 L 188.441406 130.191406 L 188.679688 130.460938 C 187.464844 132.484375 185.777344 134.207031 183.855469 135.589844 C 180.445312 138.054688 174.371094 139.941406 170.1875 139.300781 L 169.78125 139.300781 L 169.578125 139.03125 C 170.960938 138.863281 172.480469 138.121094 173.796875 137.582031 Z M 119.296875 134.136719 C 122.804688 136.128906 126.484375 137.75 130.261719 139.132812 L 130.296875 139.570312 C 127.933594 140.382812 124.257812 139.199219 121.996094 138.425781 C 117.339844 136.839844 113.660156 134.308594 111.464844 129.820312 C 114.234375 130.898438 116.765625 132.722656 119.296875 134.136719 Z M 119.296875 134.136719 " fill-opacity="1" fill-rule="nonzero"/><g clip-path="url(#cbd49e006e)"><path fill="#5ef9f6" d="M 42.691406 142.40625 C 39.855469 133.226562 35.875 122.394531 40.765625 113.214844 C 43.296875 108.457031 47.449219 104.238281 51.398438 100.59375 C 55.984375 96.375 60.914062 92.597656 66.007812 89.019531 C 71.003906 85.507812 76.402344 82.132812 80.757812 77.847656 C 86.59375 72.042969 91.320312 64.652344 96.042969 57.902344 C 97.699219 55.574219 99.285156 53.011719 101.171875 50.851562 C 101.679688 50.277344 102.152344 49.769531 102.894531 49.535156 L 103.367188 49.667969 C 103.230469 51.289062 102.015625 53.382812 101.308594 54.832031 C 97.796875 62.089844 93.410156 69.445312 88.621094 75.925781 L 83.523438 82.4375 C 82.613281 83.585938 81.5 84.765625 80.859375 86.046875 C 83.828125 83.820312 87 82.03125 90.238281 80.246094 C 97.292969 76.328125 104.617188 73.054688 111.90625 69.679688 L 131.613281 60.738281 C 134.449219 59.625 137.351562 58.511719 140.285156 57.703125 C 141.230469 57.429688 142.175781 57.261719 143.121094 57.058594 C 143.324219 57.027344 144.066406 56.957031 144.199219 56.859375 C 144.335938 56.757812 144.808594 53.921875 144.875 53.515625 C 146.628906 40.726562 146.800781 27.699219 145.753906 14.808594 C 145.484375 11.46875 145.347656 7.316406 144 4.28125 C 143.1875 3.707031 142.414062 3.636719 141.433594 3.773438 L 141.230469 3.808594 C 132.964844 4.855469 124.796875 7.351562 117.878906 12.144531 C 113.761719 15.011719 109.8125 19.09375 106.777344 23.078125 C 103.535156 27.296875 100.902344 31.816406 98.269531 36.40625 L 93.78125 44.40625 C 90.644531 50.480469 87.878906 56.757812 83.660156 62.191406 C 80.890625 65.765625 77.886719 69.210938 74.480469 72.179688 C 70.699219 75.484375 66.449219 78.050781 62.5 81.121094 C 56.828125 85.578125 51.699219 90.503906 46.671875 95.699219 C 42.082031 100.425781 37.121094 105.519531 34.421875 111.59375 C 32.566406 115.78125 31.890625 120.402344 32.53125 124.925781 C 33.613281 132.417969 37.59375 137.175781 42.691406 142.40625 Z M 42.691406 142.40625 " fill-opacity="1" fill-rule="nonzero"/></g><path fill="#5ef9f6" d="M 155.707031 56.148438 C 166.710938 60.03125 177.207031 64.484375 187.800781 69.308594 C 198.566406 74.203125 209.703125 79.46875 219.320312 86.386719 C 212.335938 78.65625 206.464844 69.582031 201.402344 60.503906 C 199.648438 57.363281 197.621094 54.023438 196.878906 50.445312 L 197.082031 50.074219 C 197.351562 50.109375 197.621094 50.109375 197.859375 50.210938 C 198.128906 50.3125 198.703125 51.121094 198.90625 51.390625 L 202.179688 55.914062 L 210.34375 67.722656 C 212.742188 71.199219 215.171875 74.609375 218.140625 77.613281 C 223.066406 82.574219 228.90625 86.21875 234.542969 90.234375 C 239.738281 93.945312 244.734375 97.960938 249.492188 102.246094 C 255.226562 107.714844 260.832031 113.890625 261.066406 122.257812 C 261.234375 128.703125 259.785156 136.433594 256.78125 142.171875 C 258.90625 140.246094 261 138.324219 262.6875 135.996094 C 265.386719 132.28125 266.9375 127.21875 267.105469 122.628906 C 267.480469 113.453125 263.363281 106.871094 257.285156 100.390625 C 251.71875 94.316406 245.679688 88.277344 239.234375 83.113281 C 232.617188 77.816406 225.328125 73.527344 219.726562 67.050781 C 213.28125 59.589844 209.671875 50.007812 205.148438 41.335938 C 199.679688 30.871094 192.089844 19.0625 182.265625 12.175781 C 178.117188 9.273438 173.628906 7.316406 168.800781 5.898438 C 165.867188 5.023438 162.625 4.109375 159.554688 4.011719 L 156.585938 4.042969 C 155.136719 7.855469 154.832031 12.074219 154.460938 16.125 C 153.820312 23.28125 153.75 30.332031 153.988281 37.519531 C 154.15625 43.695312 154.5625 50.007812 155.707031 56.148438 Z M 155.707031 56.148438 " fill-opacity="1" fill-rule="nonzero"/><path fill="#5ef9f6" d="M 74.074219 94.28125 C 69.011719 97.117188 63.882812 99.917969 59.191406 103.328125 C 55.851562 105.757812 52.613281 108.660156 50.148438 112 C 46.910156 116.453125 45.492188 121.855469 46.335938 127.320312 C 47.515625 134.710938 51.734375 140.3125 56.828125 145.578125 C 62.734375 151.652344 69.652344 156.851562 76.539062 161.777344 C 81.769531 165.523438 87.777344 168.929688 92.367188 173.453125 C 90.78125 170.316406 89.09375 167.109375 87.167969 164.171875 C 84.097656 159.515625 80.386719 155.398438 76.875 151.113281 L 69.082031 141.394531 C 66.042969 137.75 62.195312 134.207031 59.96875 130.019531 C 58.855469 127.929688 58.417969 125.09375 59.160156 122.800781 C 62.09375 113.722656 87.035156 101.472656 95.402344 97.253906 L 107.28125 91.3125 L 123.34375 84.261719 C 131.882812 80.75 140.355469 77.476562 149.703125 77.441406 C 155.675781 77.578125 161.074219 78.828125 166.742188 80.617188 C 176.632812 83.71875 186.046875 88.007812 195.328125 92.527344 L 216.082031 103.292969 C 223.4375 107.375 232.214844 111.832031 238.050781 117.972656 C 239.90625 119.929688 241.425781 122.394531 241.324219 125.195312 C 241.222656 127.253906 240.144531 129.414062 239.03125 131.132812 C 236.835938 134.542969 233.800781 137.480469 231.199219 140.617188 L 222.023438 152.226562 L 214.699219 161.507812 C 212.199219 164.984375 210.515625 168.863281 208.355469 172.542969 L 224.214844 161.640625 C 227.960938 158.910156 231.402344 155.804688 234.878906 152.734375 C 242.742188 145.816406 251.683594 138.1875 253.304688 127.21875 C 254.148438 121.449219 252.867188 116.386719 249.390625 111.730469 C 245.878906 107.039062 240.617188 103.460938 235.757812 100.257812 C 216.890625 87.703125 196.035156 78.894531 174.910156 70.964844 L 162.054688 66.375 C 159.015625 65.394531 155.910156 64.347656 152.707031 63.945312 C 151.289062 63.742188 149.804688 63.707031 148.386719 63.878906 C 138.597656 65.363281 129.015625 69.34375 119.871094 72.953125 C 104.144531 79.164062 88.820312 86.015625 74.074219 94.28125 Z M 74.074219 94.28125 " fill-opacity="1" fill-rule="nonzero"/><g clip-path="url(#a98bfb0a3a)"><path fill="#5ef9f6" d="M 296.296875 215.265625 C 294.207031 210.644531 291.304688 206.355469 288.234375 202.273438 C 280.808594 192.417969 271.359375 183.207031 261 176.457031 C 256.714844 173.65625 252.125 171.394531 247.464844 169.300781 C 242.132812 166.871094 235.417969 163.464844 229.378906 164.78125 C 224.722656 165.792969 220.433594 168.324219 216.21875 170.449219 C 212.910156 172.105469 208.996094 173.691406 206.328125 176.289062 C 203.324219 179.15625 201.132812 182.835938 197.621094 185.164062 C 198.703125 180.945312 201.4375 177.570312 203.222656 173.65625 C 206.195312 167.144531 208.082031 160.359375 209.941406 153.476562 C 210.582031 151.113281 211.390625 148.648438 211.796875 146.21875 C 205.824219 155.230469 200.050781 164.679688 193.335938 173.148438 L 162.898438 208.753906 L 155.136719 218.808594 C 153.414062 221.273438 152.03125 224.511719 149.835938 226.570312 C 146.933594 221.878906 144.199219 217.15625 140.894531 212.734375 C 130.464844 198.765625 117.84375 186.582031 106.945312 172.949219 C 102.859375 167.851562 99.285156 162.519531 95.738281 157.050781 C 93.140625 153.003906 90.578125 148.851562 87.640625 145.074219 C 89.632812 151.347656 90.609375 157.863281 93.007812 164.039062 L 98.238281 176.019531 C 99.722656 179.121094 101.445312 182.058594 102.355469 185.398438 C 98.574219 182.699219 96.246094 178.617188 92.738281 175.679688 C 90.914062 174.164062 88.449219 173.046875 86.359375 171.867188 C 82.039062 169.402344 77.414062 166.027344 72.589844 164.8125 C 70.363281 164.273438 68.035156 164.34375 65.804688 164.714844 C 59.867188 165.691406 54.332031 168.121094 49 170.820312 C 33.746094 178.617188 19.945312 189.988281 10.023438 204.027344 C 5.332031 210.644531 1.722656 218.335938 0 226.265625 C 10.15625 220.96875 20.820312 218.335938 32.027344 216.347656 C 38.574219 215.199219 45.121094 214.085938 51.734375 213.613281 C 67.796875 212.429688 84.503906 214.050781 99.890625 218.945312 C 101.679688 219.519531 103.875 220.597656 105.730469 220.632812 C 97.597656 215.875 89.699219 210.644531 80.789062 207.46875 C 75.457031 205.582031 69.921875 204.566406 64.289062 204.195312 C 61.65625 204.027344 39.988281 203.925781 39.550781 203.488281 C 39.449219 203.386719 39.449219 203.21875 39.382812 203.117188 C 40.363281 202.308594 43.027344 202.476562 44.34375 202.441406 L 58.347656 202.339844 C 60.710938 202.375 63.074219 202.746094 65.433594 202.441406 C 61.488281 201.699219 54.941406 201.125 52.476562 197.515625 C 51.9375 196.707031 51.769531 195.625 52.003906 194.679688 C 52.242188 193.769531 52.882812 193.128906 53.691406 192.6875 C 56.527344 191.136719 63.242188 193.804688 66.144531 194.78125 C 77.113281 198.425781 87.4375 203.625 97.15625 209.832031 C 100.699219 212.128906 104.277344 214.386719 107.550781 217.019531 C 113.050781 221.441406 118.046875 226.4375 123.144531 231.363281 L 137.382812 245.605469 L 145.28125 254.683594 C 147 256.742188 148.6875 258.933594 150.578125 260.859375 C 155.335938 253.769531 161.210938 247.222656 167.015625 240.980469 C 176.835938 230.453125 187.261719 220.160156 199.105469 211.890625 C 207.140625 206.289062 216.117188 201.429688 225.195312 197.785156 C 228.972656 196.265625 242.035156 191.070312 245.476562 192.488281 C 246.320312 192.859375 247.164062 193.632812 247.5 194.511719 C 247.839844 195.390625 247.703125 196.535156 247.332031 197.378906 C 246.453125 199.269531 243.789062 200.214844 241.898438 200.789062 L 234.675781 202.644531 C 237.105469 202.746094 239.570312 202.441406 242 202.339844 L 253.070312 202.308594 C 255.296875 202.339844 257.792969 202.238281 259.917969 202.914062 C 257.421875 203.65625 255.027344 203.691406 252.425781 203.757812 L 242.640625 203.925781 C 232.484375 204.195312 222.863281 205.851562 213.550781 210.101562 C 209.769531 211.824219 206.261719 213.917969 202.71875 216.007812 C 200.1875 217.492188 197.320312 218.742188 194.957031 220.429688 L 210.34375 216.347656 C 215.375 215.132812 220.535156 214.320312 225.667969 213.746094 C 237.917969 212.363281 250.503906 213.578125 262.652344 215.46875 C 275.207031 217.425781 288.535156 220.261719 299.707031 226.605469 C 298.898438 222.757812 297.917969 218.878906 296.296875 215.265625 Z M 296.296875 215.265625 " fill-opacity="1" fill-rule="nonzero"/></g></svg>